<?xml version="1.0" encoding="iso-8859-1"?>
<!-- Generator: Adobe Illustrator 19.0.0, SVG Export Plug-In . SVG Version: 6.00 Build 0)  -->
<svg version="1.1" id="Layer_1" xmlns="http://www.w3.org/2000/svg" xmlns:xlink="http://www.w3.org/1999/xlink" x="0px" y="0px"
	 viewBox="0 0 512 512" style="enable-background:new 0 0 512 512;" xml:space="preserve">
<g>
	<g>
		<g>
			<path d="M248.434,291.265c4.203,4.118,10.929,4.118,15.131,0L475.793,83.271c6.78-6.645,2.214-18.325-7.278-18.371
				c-0.074,0-0.147,0-0.222,0H43.707c-0.074,0-0.147,0-0.222,0c-9.492,0.047-14.058,11.727-7.278,18.371L248.434,291.265z"/>
			<path d="M511.999,108.265c-0.071-9.472-11.614-14.129-18.378-7.498L264.74,325.084c-4.853,4.759-12.626,4.759-17.48,0
				L18.38,100.767c-6.765-6.63-18.307-1.973-18.378,7.498C0,108.379,0,108.492,0,108.606v294.787
				C0,427.532,19.568,447.1,43.707,447.1h424.585c24.139,0,43.707-19.568,43.707-43.707V108.606
				C512,108.492,512,108.379,511.999,108.265z"/>
		</g>
	</g>
</g>
<g>
</g>
<g>
</g>
<g>
</g>
<g>
</g>
<g>
</g>
<g>
</g>
<g>
</g>
<g>
</g>
<g>
</g>
<g>
</g>
<g>
</g>
<g>
</g>
<g>
</g>
<g>
</g>
<g>
</g>
</svg>
